<?xml version="1.0" encoding="utf-8"?>
<svg version="1.1" xmlns="http://www.w3.org/2000/svg" xmlns:xlink="http://www.w3.org/1999/xlink" height="45" width="45.375">
  <defs>
    <path id="path-0" opacity="1" d="M22.687499999999545,1.7727272727288437 C28.462499999999636,1.7727272727288437 33.687499999999545,4.090909090910827 37.49166666666633,7.818181818183348 C41.295833333332894,11.590909090910827 43.633333333332985,16.772727272728844 43.67916666666633,22.500000000001364 C43.67916666666633,28.22727272727434 41.34166666666624,33.409090909092356 37.53749999999968,37.181818181819835 C33.733333333332894,40.95454545454686 28.508333333332985,43.272727272728844 22.733333333332894,43.272727272728844 C16.95833333333303,43.272727272728844 11.733333333332894,40.95454545454686 7.929166666666333,37.181818181819835 C4.124999999999773,33.409090909092356 1.7874999999996817,28.22727272727434 1.7874999999996817,22.500000000001364 C1.7874999999996817,16.772727272728844 4.124999999999773,11.590909090910827 7.883333333332985,7.863636363637852 C11.687499999999773,4.090909090910827 16.91249999999968,1.7727272727288437 22.687499999999545,1.7727272727288437 L22.687499999999545,1.7727272727288437ZM22.6875,0 C16.408333333333303,0 10.770833333333258,2.5 6.6458333333332575,6.590909090909008 C2.5208333333332575,10.681818181818016 0,16.27272727272748 0,22.5 C0,28.72727272727252 2.5208333333332575,34.31818181818198 6.6458333333332575,38.40909090909099 C10.770833333333258,42.5 16.408333333333303,45 22.6875,45 C28.966666666666697,45 34.60416666666674,42.5 38.72916666666674,38.40909090909099 C42.85416666666674,34.31818181818198 45.375,28.72727272727252 45.375,22.5 C45.375,16.27272727272748 42.85416666666674,10.681818181818016 38.72916666666674,6.590909090909008 C34.60416666666674,2.5 28.966666666666697,0 22.6875,0 L22.6875,0Z"/>
    <path id="path-1" opacity="1" d="M24.429166666665154,17.90909090908774 L24.429166666665154,16.04545454545137 C24.429166666665154,15.181818181815007 25.02499999999849,14.95454545454228 25.437499999998494,14.95454545454228 L28.04999999999851,14.95454545454228 L28.04999999999851,10.999999999996817 L24.47499999999849,10.999999999996817 C20.48749999999847,10.999999999996817 19.616666666665132,13.909090909087734 19.616666666665132,15.818181818178644 L19.616666666665132,17.90909090908774 L17.324999999998454,17.90909090908774 L17.324999999998454,22.499999999996845 L19.662499999998467,22.499999999996845 L19.662499999998467,33.99999999999687 L24.291666666665154,33.99999999999687 L24.291666666665154,22.499999999996845 L27.729166666665172,22.499999999996845 L27.86666666666517,20.68181818181502 L28.141666666665174,17.90909090908774 L24.429166666665154,17.90909090908774Z"/>
  </defs>
  <g opacity="1">
    <g>
      <use xlink:href="#path-0" fill="rgb(224,224,224)" fill-opacity="1"/>
    </g>
    <g>
      <use xlink:href="#path-1" fill="rgb(224,224,224)" fill-opacity="1"/>
    </g>
  </g>
</svg>