<?xml version="1.0" encoding="utf-8"?>
<svg version="1.1" xmlns="http://www.w3.org/2000/svg" xmlns:xlink="http://www.w3.org/1999/xlink" height="45" width="45.375">
  <defs>
    <path id="path-0" opacity="1" d="M22.687499999999318,1.7727272727288437 C28.46249999999918,1.7727272727288437 33.68749999999909,4.090909090910827 37.49166666666588,7.818181818183348 C41.29583333333244,11.590909090910827 43.63333333333253,16.772727272728844 43.67916666666588,22.500000000001364 C43.67916666666588,28.22727272727434 41.34166666666579,33.409090909092356 37.53749999999923,37.181818181819835 C33.73333333333244,40.95454545454686 28.50833333333253,43.272727272728844 22.73333333333244,43.272727272728844 C16.958333333332575,43.272727272728844 11.733333333332666,40.95454545454686 7.929166666665878,37.181818181819835 C4.124999999999318,33.409090909092356 1.787499999999227,28.22727272727434 1.787499999999227,22.500000000001364 C1.787499999999227,16.772727272728844 4.124999999999318,11.590909090910827 7.88333333333253,7.863636363637852 C11.687499999999318,4.090909090910827 16.912499999999227,1.7727272727288437 22.687499999999318,1.7727272727288437 L22.687499999999318,1.7727272727288437ZM22.6875,0 C16.45416666666665,0 10.770833333333258,2.5 6.6458333333332575,6.590909090909008 C2.5208333333332575,10.681818181818016 0,16.27272727272748 0,22.5 C0,28.72727272727252 2.5208333333332575,34.31818181818198 6.6458333333332575,38.40909090909099 C10.770833333333258,42.5 16.408333333333303,45 22.6875,45 C28.966666666666697,45 34.65000000000009,42.5 38.72916666666674,38.40909090909099 C42.85416666666674,34.31818181818198 45.375,28.72727272727252 45.375,22.5 C45.375,16.27272727272748 42.85416666666674,10.681818181818016 38.72916666666674,6.590909090909008 C34.65000000000009,2.5 28.966666666666697,0 22.6875,0 L22.6875,0Z"/>
    <path id="path-1" opacity="1" d="M29.88333333333344,14.22727272727434 C29.241666666666788,14.22727272727434 28.691666666666833,14.772727272728844 28.691666666666833,15.409090909092356 C28.691666666666833,16.045454545456323 29.241666666666788,16.590909090910827 29.88333333333344,16.590909090910827 C30.52500000000009,16.590909090910827 31.075000000000273,16.045454545456323 31.075000000000273,15.409090909092356 C31.075000000000273,14.772727272728844 30.57083333333344,14.22727272727434 29.88333333333344,14.22727272727434 L29.88333333333344,14.22727272727434ZM22.733333333334485,16.72727272727434 C25.94166666666797,16.72727272727434 28.554166666667925,19.318181818183348 28.554166666667925,22.50000000000182 C28.554166666667925,25.681818181819835 25.94166666666797,28.272727272728844 22.733333333334485,28.272727272728844 C19.47916666666788,28.272727272728844 16.912500000001273,25.681818181819835 16.912500000001273,22.50000000000182 C16.912500000001273,19.318181818183348 19.525000000001228,16.72727272727434 22.733333333334485,16.72727272727434 L22.733333333334485,16.72727272727434ZM22.6875,15.227272727272975 C18.654166666666697,15.227272727272975 15.354166666666742,18.500000000000455 15.354166666666742,22.500000000000455 C15.354166666666742,26.54545454545496 18.654166666666697,29.77272727272748 22.6875,29.77272727272748 C26.76666666666665,29.77272727272748 30.020833333333485,26.54545454545496 30.020833333333485,22.500000000000455 C30.020833333333485,18.500000000000455 26.72083333333353,15.227272727272975 22.6875,15.227272727272975 L22.6875,15.227272727272975ZM28.691666666666606,12.545454545450411 C30.9375,12.545454545450411 32.72499999999991,14.31818181817789 32.72499999999991,16.54545454545041 L32.72499999999991,28.454545454541403 C32.72499999999991,30.681818181813924 30.9375,32.4545454545414 28.691666666666606,32.4545454545414 L16.683333333333167,32.4545454545414 C14.437499999999773,32.4545454545414 12.649999999999864,30.681818181813924 12.649999999999864,28.454545454541403 L12.649999999999864,16.54545454545041 C12.649999999999864,14.363636363632395 14.483333333333121,12.545454545450411 16.683333333333167,12.545454545450411 L28.691666666666606,12.545454545450411ZM16.683333333333394,11.227272727275704 C13.75,11.227272727275704 11.32083333333344,13.636363636366696 11.32083333333344,16.545454545457687 L11.32083333333344,28.454545454548224 C11.32083333333344,31.363636363639216 13.75,33.77272727273021 16.683333333333394,33.77272727273021 L28.691666666666833,33.77272727273021 C31.67083333333335,33.77272727273021 34.05416666666679,31.363636363639216 34.05416666666679,28.454545454548224 L34.05416666666679,16.545454545457687 C34.100000000000136,13.636363636366696 31.67083333333335,11.227272727275704 28.691666666666833,11.227272727275704 L16.683333333333394,11.227272727275704Z"/>
  </defs>
  <g opacity="1">
    <g>
      <use xlink:href="#path-0" fill="rgb(224,224,224)" fill-opacity="1"/>
    </g>
    <g>
      <use xlink:href="#path-1" fill="rgb(224,224,224)" fill-opacity="1"/>
    </g>
  </g>
</svg>