<?xml version="1.0" encoding="utf-8"?>
<svg version="1.1" xmlns="http://www.w3.org/2000/svg" xmlns:xlink="http://www.w3.org/1999/xlink" height="45" width="45.375">
  <defs>
    <path id="path-0" opacity="1" d="M22.687499999999545,1.7727272727288437 C28.46249999999941,1.7727272727288437 33.687499999999545,4.090909090910827 37.491666666666106,7.818181818183348 C41.295833333332894,11.590909090910827 43.63333333333276,16.772727272728844 43.679166666666106,22.500000000001364 C43.679166666666106,28.22727272727434 41.341666666666015,33.409090909092356 37.537499999999454,37.181818181819835 C33.733333333332894,40.95454545454686 28.508333333332757,43.272727272728844 22.733333333332894,43.272727272728844 C16.958333333332803,43.272727272728844 11.733333333332894,40.95454545454686 7.929166666666106,37.181818181819835 C4.124999999999545,33.409090909092356 1.7874999999994543,28.22727272727434 1.7874999999994543,22.500000000001364 C1.7874999999994543,16.772727272728844 4.124999999999545,11.590909090910827 7.883333333332757,7.863636363637852 C11.687499999999545,4.090909090910827 16.912499999999454,1.7727272727288437 22.687499999999545,1.7727272727288437 L22.687499999999545,1.7727272727288437ZM22.6875,0 C16.45416666666665,0 10.770833333333258,2.5 6.6458333333332575,6.590909090909008 C2.5208333333332575,10.681818181818016 0,16.27272727272748 0,22.5 C0,28.72727272727252 2.5208333333332575,34.31818181818198 6.6458333333332575,38.40909090909099 C10.770833333333258,42.5 16.408333333333303,45 22.6875,45 C28.966666666666697,45 34.65000000000009,42.5 38.72916666666674,38.40909090909099 C42.85416666666674,34.31818181818198 45.375,28.72727272727252 45.375,22.5 C45.375,16.27272727272748 42.85416666666674,10.681818181818016 38.72916666666674,6.590909090909008 C34.65000000000009,2.5 28.966666666666697,0 22.6875,0 L22.6875,0Z"/>
    <path id="path-1" opacity="1" d="M23.237500000000573,11.045454545457687 C16.72916666666724,11.045454545457687 13.429166666667243,15.500000000003158 13.429166666667243,19.272727272730442 C13.429166666667243,19.95454545454863 13.52083333333391,20.636363636366813 13.658333333333909,21.27272727273045 C14.070833333333908,22.681818181821363 14.895833333333911,23.818181818185007 16.225000000000577,24.31818181818501 C16.54583333333391,24.454545454548644 16.82083333333391,24.31818181818501 16.912500000000577,24.00000000000319 C17.004166666667246,23.772727272730457 17.141666666667245,23.181818181821367 17.187500000000576,22.95454545454864 C17.279166666667244,22.63636363636682 17.23333333333391,22.500000000003183 17.004166666667246,22.22727272727591 C16.68333333333391,21.818181818185 16.408333333333914,21.40909090909409 16.27083333333391,20.863636363639543 C16.179166666667243,20.500000000003176 16.087500000000578,20.090909090912263 16.087500000000578,19.63636363636681 C16.087500000000578,16.318181818184982 18.70000000000058,13.31818181818497 22.870833333333913,13.31818181818497 C26.537500000000577,13.31818181818497 28.600000000000577,15.454545454548615 28.600000000000577,18.363636363639532 C28.600000000000577,19.227272727275896 28.50833333333391,20.045454545457723 28.37083333333391,20.818181818184996 C27.775000000000578,23.454545454548636 26.262500000000575,25.409090909094104 24.24583333333391,25.409090909094104 C22.82500000000058,25.409090909094104 21.725000000000577,24.27272727273046 22.091666666667244,22.863636363639547 C22.275000000000574,22.09090909091227 22.595833333333907,21.27272727273045 22.82500000000058,20.454545454548633 C23.100000000000577,19.63636363636681 23.329166666667245,18.81818181818499 23.329166666667245,18.18181818182135 C23.329166666667245,17.090909090912255 22.73333333333391,16.181818181821345 21.45000000000058,16.181818181821345 C19.98333333333391,16.181818181821345 18.791666666667243,17.636363636366806 18.791666666667243,19.590909090912263 C18.791666666667243,19.95454545454863 18.837500000000578,20.318181818184996 18.883333333333912,20.545454545457723 C19.02083333333391,21.22727272727591 19.250000000000576,21.681818181821363 19.250000000000576,21.681818181821363 C19.250000000000576,21.681818181821363 17.73750000000058,27.81818181818502 17.508333333333912,28.863636363639575 C16.95833333333391,31.00000000000322 17.416666666667243,33.59090909091232 17.462500000000578,33.86363636363959 C17.462500000000578,34.000000000003226 17.691666666667246,34.04545454545777 17.783333333333914,33.95454545454868 C17.92083333333391,33.7727272727305 19.66250000000058,31.727272727275945 20.258333333333912,29.63636363636685 C20.39583333333391,29.045454545457762 21.220833333333914,26.000000000003205 21.220833333333914,26.000000000003205 C21.679166666667246,26.863636363639564 23.10000000000058,27.63636363636684 24.566666666667246,27.63636363636684 C28.141666666667245,27.63636363636684 30.800000000000576,25.045454545457744 31.67083333333391,21.318181818185003 C31.854166666667247,20.454545454548636 31.991666666667246,19.545454545457726 31.991666666667246,18.590909090912266 C31.991666666667246,14.636363636366799 28.508333333333912,11.045454545457696 23.237500000000573,11.045454545457687Z"/>
  </defs>
  <g opacity="1">
    <g>
      <use xlink:href="#path-0" fill="rgb(224,224,224)" fill-opacity="1"/>
    </g>
    <g>
      <use xlink:href="#path-1" fill="rgb(224,224,224)" fill-opacity="1"/>
    </g>
  </g>
</svg>