<?xml version="1.0" encoding="utf-8"?>
<svg version="1.1" xmlns="http://www.w3.org/2000/svg" xmlns:xlink="http://www.w3.org/1999/xlink" height="45" width="45.375">
  <defs>
    <path id="path-0" opacity="1" d="M22.687500000000227,1.7727272727288437 C28.46250000000009,1.7727272727288437 33.68750000000023,4.090909090910827 37.49166666666679,7.818181818183348 C41.29583333333335,11.590909090910827 43.63333333333344,16.772727272728844 43.67916666666679,22.500000000001364 C43.67916666666679,28.22727272727434 41.3416666666667,33.409090909092356 37.537500000000136,37.181818181819835 C33.73333333333335,40.95454545454686 28.50833333333344,43.272727272728844 22.73333333333335,43.272727272728844 C16.958333333333485,43.272727272728844 11.733333333333576,40.95454545454686 7.929166666666788,37.181818181819835 C4.125000000000227,33.409090909092356 1.7875000000001364,28.22727272727434 1.7875000000001364,22.500000000001364 C1.7875000000001364,16.772727272728844 4.125000000000227,11.590909090910827 7.883333333333439,7.863636363637852 C11.687500000000227,4.090909090910827 16.912500000000136,1.7727272727288437 22.687500000000227,1.7727272727288437 L22.687500000000227,1.7727272727288437ZM22.6875,0 C16.408333333333303,0 10.770833333333258,2.545454545454504 6.6458333333332575,6.590909090909008 C2.5208333333332575,10.636363636363512 0,16.27272727272748 0,22.5 C0,28.681818181818016 2.5208333333332575,34.31818181818198 6.6458333333332575,38.40909090909099 C10.770833333333258,42.454545454545496 16.408333333333303,45 22.6875,45 C28.966666666666697,45 34.60416666666674,42.454545454545496 38.72916666666674,38.40909090909099 C42.85416666666674,34.31818181818198 45.375,28.72727272727252 45.375,22.5 C45.375,16.318181818181984 42.85416666666674,10.681818181818016 38.72916666666674,6.590909090909008 C34.60416666666674,2.545454545454504 28.966666666666697,0 22.6875,0 L22.6875,0Z"/>
    <path id="path-1" opacity="1" d="M34.28333333333315,15.499999999998337 C33.45833333333315,15.863636363634699 32.54166666666649,16.090909090907427 31.57916666666648,16.227272727271064 C32.587499999999814,15.636363636361976 33.32083333333315,14.727272727271071 33.687499999999815,13.636363636361983 C32.770833333333144,14.181818181816526 31.76249999999981,14.545454545452888 30.662499999999813,14.772727272725612 C29.79166666666648,13.863636363634708 28.554166666666482,13.318181818180165 27.17916666666648,13.318181818180165 C24.566666666666478,13.318181818180165 22.412499999999817,15.409090909089247 22.412499999999817,17.954545454543783 C22.412499999999817,18.318181818180143 22.45833333333315,18.68181818181651 22.549999999999812,18.999999999998323 C18.608333333333146,18.818181818180143 15.079166666666481,16.954545454543783 12.74166666666648,14.136363636361978 C12.329166666666483,14.818181818180156 12.099999999999815,15.636363636361972 12.099999999999815,16.454545454543787 C12.099999999999815,18.090909090907417 12.970833333333148,19.499999999998323 14.20833333333315,20.318181818180136 C13.429166666666482,20.318181818180136 12.69583333333315,20.09090909090741 12.054166666666482,19.772727272725593 C12.054166666666482,20.363636363634683 12.14583333333315,20.909090909089226 12.374999999999815,21.45454545454377 C12.97083333333315,22.909090909089223 14.254166666666483,23.999999999998305 15.85833333333315,24.318181818180122 C15.445833333333152,24.409090909089215 15.033333333333152,24.499999999998302 14.62083333333315,24.499999999998302 C14.299999999999818,24.499999999998302 14.024999999999817,24.454545454543755 13.749999999999819,24.40909090908921 C14.345833333333152,26.272727272725568 16.13333333333315,27.59090909090738 18.19583333333315,27.636363636361928 C16.54583333333315,28.863636363634654 14.529166666666484,29.636363636361924 12.283333333333152,29.636363636361924 C11.870833333333152,29.636363636361924 11.549999999999818,29.59090909090738 11.137499999999818,29.59090909090738 C13.245833333333152,30.909090909089198 15.766666666666485,31.68181818181646 18.424999999999816,31.68181818181646 C25.849999999999817,31.68181818181646 30.433333333333145,26.590909090907388 31.62499999999982,21.27272727272559 C31.854166666666483,20.31818181818014 31.94583333333315,19.409090909089233 31.94583333333315,18.454545454543783 L31.94583333333315,17.863636363634694 C32.81666666666649,17.22727272727106 33.64166666666649,16.409090909089244 34.28333333333315,15.499999999998337Z"/>
  </defs>
  <g opacity="1">
    <g>
      <use xlink:href="#path-0" fill="rgb(224,224,224)" fill-opacity="1"/>
    </g>
    <g>
      <use xlink:href="#path-1" fill="rgb(224,224,224)" fill-opacity="1"/>
    </g>
  </g>
</svg>