<?xml version="1.0" encoding="utf-8"?>
<svg version="1.1" xmlns="http://www.w3.org/2000/svg" xmlns:xlink="http://www.w3.org/1999/xlink" height="43.900000000000006" width="50.634452664576884">
  <defs>
    <path id="path-0" opacity="1" d="M33.50492037617556,2.752351097178746 C33.78015548589343,2.752351097178746 33.917773040752365,2.752351097178746 33.917773040752365,2.8899686520376804 C35.56918369905958,3.3028213166144837 36.394889028213186,5.779937304075304 35.70680125391851,8.11943573667719 C35.21334653552171,10.216618289863632 33.614030180515044,11.76087002474516 32.09843728879042,11.76087002474516 C31.92332033302705,11.76087002474516 31.74932111126725,11.740253788788678 31.57827460815048,11.697492163009485 C30.61495172413794,11.422257053291617 30.202099059561135,10.59655172413801 29.926863949843266,10.046081504702272 C29.514011285266463,8.945141065830796 29.514011285266463,7.706583072100386 29.789246394984332,6.468025078369976 C30.477334169279004,4.403761755485959 31.991127272727283,2.752351097178746 33.50492037617556,2.752351097178746 L33.50492037617556,2.752351097178746ZM17.12843134796239,2.752351097178746 C18.64222445141067,2.752351097178746 20.15601755485895,4.403761755485959 20.706487774294686,6.468025078369976 C20.981722884012555,7.706583072100386 20.981722884012555,9.08275862068973 20.568870219435752,10.046081504702272 C20.431252664576817,10.458934169279075 19.88078244514108,11.422257053291624 18.91745956112854,11.697492163009485 C18.779842006269604,11.83510971786842 18.504606896551735,11.83510971786842 18.3669893416928,11.83510971786842 C16.85319623824452,11.83510971786842 15.339403134796243,10.183699059561206 14.788932915360505,8.11943573667719 C14.376080250783701,6.88087774294678 14.513697805642636,5.504702194357435 14.92655047021944,4.541379310344894 C15.064168025078374,4.1285266457680905 15.614638244514111,3.1652037617555493 16.577961128526653,2.8899686520376804 C16.715578683385587,2.752351097178746 16.990813793103456,2.752351097178746 17.12843134796239,2.752351097178746 L17.12843134796239,2.752351097178746ZM17.128431347962376,0 C16.715578683385573,0 16.165108463949835,0 15.889873354231966,0.13761755485893445 C14.238462695924753,0.5504702194357378 12.999904702194343,1.789028213166148 12.31181692789967,3.4404388714733614 C11.623729153604998,5.091849529780575 11.623729153604998,6.880877742946723 12.036581818181801,8.669905956112864 C12.999904702194343,12.110344827586225 15.614638244514097,14.44984326018811 18.366989341692786,14.44984326018811 C18.77984200626959,14.44984326018811 19.192694670846393,14.44984326018811 19.605547335423196,14.312225705329176 C21.25695799373041,13.899373040752373 22.49551598746082,12.660815047021963 23.183603761755492,11.00940438871475 C23.871691536050164,9.49561128526647 24.009309090909085,7.568965517241395 23.458838871473347,5.779937304075247 C22.49551598746082,2.3394984326018857 19.880782445141065,0 17.128431347962376,0 L17.128431347962376,0ZM33.50492037617556,0 C30.752569278996873,0 28.13783573667712,2.3394984326018857 27.174512852664577,5.779937304075247 C26.761660188087774,7.568965517241395 26.761660188087774,9.49561128526647 27.449747962382446,11.00940438871475 C28.13783573667712,12.660815047021963 29.514011285266463,13.899373040752373 31.027804388714742,14.312225705329176 C31.440657053291545,14.44984326018811 31.85350971786835,14.44984326018811 32.26636238244515,14.44984326018811 C35.01871347962384,14.44984326018811 37.633447021943596,12.110344827586225 38.4591523510972,8.807523510971798 C39.56009278996868,4.816614420062706 37.908682131661465,0.9633228840125412 34.74347836990597,0.13761755485893445 C34.33062570532917,0 33.917773040752365,0 33.50492037617556,0 L33.50492037617556,0ZM5.430939184952976,13.624137931034511 C6.944732288401255,13.624137931034511 8.458525391849534,15.275548589341724 9.008995611285272,17.33981191222574 C9.69708338557993,19.679310344827627 8.871378056426337,22.156426332288447 7.219967398119124,22.56927899686525 C7.06317477026208,22.612040622644443 6.901953064440491,22.632656858600924 6.738137265293844,22.632656858600924 C5.320353021291993,22.632656858600924 3.7082591503471036,21.088405123719404 3.0914407523510903,18.991222570532955 C2.8162056426332214,17.752664576802545 2.8162056426332214,16.3764890282132 3.2290583072100247,15.413166144200659 C3.366675862068959,15.000313479623856 3.917146081504697,14.036990595611314 4.880468965517238,13.761755485893445 C5.018086520376173,13.624137931034511 5.2933216300940416,13.624137931034511 5.430939184952976,13.624137931034511 L5.430939184952976,13.624137931034511ZM45.202412539184934,14.17460815047022 C45.34003009404387,14.17460815047022 45.61526520376174,14.17460815047022 45.61526520376174,14.312225705329155 C47.26667586206895,14.725078369905958 48.09238119122256,17.20219435736678 47.404293416927885,19.541692789968664 C46.91083869853108,21.638875343155114 45.311522343524445,23.183127078036634 43.79592945179982,23.183127078036634 C43.62081249603645,23.183127078036634 43.44681327427665,23.162510842080152 43.27576677115988,23.11974921630096 C41.62435611285267,22.706896551724157 40.79865078369906,20.229780564263336 41.48673855799373,17.89028213166145 C42.174826332288404,15.826018808777434 43.688619435736655,14.17460815047022 45.202412539184934,14.17460815047022 L45.202412539184934,14.17460815047022ZM5.430939184952976,10.87178683385578 C5.018086520376173,10.87178683385578 4.467616300940435,11.009404388714714 4.192381191222566,11.009404388714714 C2.5409705329153525,11.422257053291517 1.3024125391849424,12.660815047021927 0.6143247648902701,14.449843260188075 C-0.07376300940440217,15.963636363636354 -0.21138056426333662,17.89028213166143 0.3390896551724012,19.679310344827584 C1.3024125391849424,23.11974921630094 3.917146081504697,25.459247648902824 6.6694971786834145,25.459247648902824 C7.082349843260204,25.459247648902824 7.495202507836993,25.32163009404389 8.045672727272716,25.32163009404389 C11.073258934169274,24.35830721003135 12.862287147335422,20.50501567398119 11.761346708463947,16.651724137931026 C10.798023824451406,13.211285266457665 8.18329028213165,10.87178683385578 5.430939184952976,10.87178683385578 L5.430939184952976,10.87178683385578ZM45.340030094043954,11.284639498432625 C42.45006144200636,11.284639498432625 39.97294545454554,13.624137931034511 39.009622570533,17.064576802507865 C37.90868213166152,21.055485893416964 39.560092789968735,24.908777429467122 42.72529655172423,25.73448275862073 C43.138149216301,25.87210031347967 43.551001880877806,25.87210031347967 43.96385454545461,25.87210031347967 C46.7162056426333,25.872100313479663 49.33093918495305,23.532601880877777 50.294262068965594,20.092163009404423 C51.39520250783707,16.10125391849533 49.743791849529856,12.247962382445166 46.578588087774364,11.42225705329156 C46.16573542319756,11.284639498432625 45.75288275862076,11.284639498432625 45.340030094043954,11.284639498432625 L45.340030094043954,11.284639498432625ZM25.247867084639523,20.09216300940443 C30.890186833855836,20.09216300940443 37.49582946708469,29.31253918495304 37.49582946708469,35.367711598746155 C37.49582946708469,38.53291536050165 35.84441880877745,41.1476489028214 33.78015548589346,41.1476489028214 C32.95445015673985,41.1476489028214 31.853509717868377,40.45956112852673 30.7525692789969,39.77147335423206 C29.238776175548622,38.808150470219516 27.449747962382474,37.70721003134804 25.247867084639523,37.70721003134804 C23.183603761755506,37.70721003134804 21.39457554858936,38.808150470219516 19.743164890282145,39.77147335423206 C18.50460689655175,40.45956112852673 17.541284012539208,41.1476489028214 16.7155786833856,41.1476489028214 C14.651315360501584,41.1476489028214 12.999904702194371,38.53291536050165 12.999904702194371,35.367711598746155 C12.999904702194371,29.31253918495304 19.60554733542321,20.09216300940443 25.247867084639523,20.09216300940443 L25.247867084639523,20.09216300940443ZM25.385484639498486,17.339811912225684 C17.403666457680302,17.339811912225684 10.385171159874645,28.624451410658295 10.385171159874645,35.367711598746084 C10.385171159874645,40.18432601880879 13.275139811912268,43.900000000000006 16.853196238244564,43.900000000000006 C18.504606896551778,43.900000000000006 19.880782445141122,42.93667711598748 21.256957993730467,42.11097178683387 C22.63313354231981,41.285266457680265 24.00930909090914,40.45956112852666 25.385484639498486,40.45956112852666 C26.76166018808783,40.45956112852666 28.137835736677175,41.285266457680265 29.51401128526652,42.11097178683387 C30.890186833855864,43.0742946708464 32.26636238244521,43.900000000000006 33.91777304075242,43.900000000000006 C37.49582946708472,43.900000000000006 40.38579811912234,40.18432601880879 40.38579811912234,35.367711598746084 C40.38579811912234,28.624451410658295 33.367302821316684,17.339811912225684 25.385484639498486,17.339811912225684 L25.385484639498486,17.339811912225684Z"/>
  </defs>
  <g opacity="1">
    <g>
      <use xlink:href="#path-0" fill="rgb(0,0,0)" fill-opacity="1"/>
    </g>
  </g>
</svg>