<?xml version="1.0" encoding="utf-8"?>
<!-- Generator: Adobe Illustrator 22.1.0, SVG Export Plug-In . SVG Version: 6.00 Build 0)  -->
<svg version="1.1" id="Layer_1" xmlns="http://www.w3.org/2000/svg" xmlns:xlink="http://www.w3.org/1999/xlink" x="0px" y="0px"
	 viewBox="0 0 24 22.2" style="enable-background:new 0 0 24 22.2;" xml:space="preserve">
<g>
	<g>
		<g>
			<path id="path-0" d="M22.3,4.2l-1.8,7H6.5l-1.1-7H22.3z M0.8,0C0.3,0,0,0.3,0,0.8c0,0.4,0.3,0.8,0.8,0.8h1.9
				c0.5,0,0.9,0.3,0.9,0.8l1.6,9.6c0,0.1,0,0.2,0.1,0.2l0.3,1.6c0.2,1.5,1.5,2.5,3,2.5h12.2c0.4,0,0.8-0.3,0.8-0.8
				c0-0.4-0.3-0.8-0.8-0.8H8.4c-0.7,0-1.3-0.5-1.4-1.2l-0.2-0.9h14.1c0.1,0,0.1,0,0.2,0c0.1,0,0.2,0,0.3-0.1
				c0.2-0.1,0.3-0.3,0.4-0.5l2.2-8.5C24,3.4,24,3.1,23.9,2.9l-0.1-0.1c-0.1-0.1-0.3-0.3-0.6-0.3H5.1L5.1,2.1C4.9,0.9,3.8,0,2.6,0
				H0.8z"/>
		</g>
	</g>
	<g>
		<g>
			<path id="path-1" d="M8.6,18.6c0.6,0,1,0.5,1,1c0,0.6-0.5,1-1,1s-1-0.5-1-1C7.6,19.1,8,18.6,8.6,18.6L8.6,18.6z M8.6,17
				c-1.4,0-2.6,1.2-2.6,2.6c0,1.4,1.2,2.6,2.6,2.6s2.6-1.2,2.6-2.6C11.2,18.2,10,17,8.6,17L8.6,17z"/>
		</g>
	</g>
	<g>
		<g>
			<path id="path-2" d="M17.1,18.6c0.6,0,1,0.5,1,1c0,0.6-0.5,1-1,1s-1-0.5-1-1C16,19.1,16.5,18.6,17.1,18.6L17.1,18.6z M17.1,17
				c-1.4,0-2.6,1.2-2.6,2.6c0,1.4,1.1,2.6,2.6,2.6s2.6-1.2,2.6-2.6C19.7,18.2,18.5,17,17.1,17L17.1,17z"/>
		</g>
	</g>
</g>
</svg>
